<?xml version="1.0" encoding="iso-8859-1"?>
<!-- Generator: Adobe Illustrator 16.0.0, SVG Export Plug-In . SVG Version: 6.00 Build 0)  -->
<!DOCTYPE svg PUBLIC "-//W3C//DTD SVG 1.1//EN" "http://www.w3.org/Graphics/SVG/1.1/DTD/svg11.dtd">
<svg version="1.1" id="Capa_1" xmlns="http://www.w3.org/2000/svg" xmlns:xlink="http://www.w3.org/1999/xlink" x="0px" y="0px"
	 width="26.361px" height="26.362px" viewBox="0 0 26.361 26.362" style="enable-background:new 0 0 26.361 26.362;"
	 xml:space="preserve">
<g>
	<path d="M24.362,0H2C0.896,0,0,0.896,0,2v22.36c0,1.104,0.896,2,2,2h22.361c1.104,0,2-0.896,2-2V2C26.362,0.896,25.467,0,24.362,0z
		 M22.58,9.583L12.555,19.611c-0.391,0.391-0.902,0.586-1.414,0.586c-0.512,0-1.023-0.195-1.414-0.586l-5.945-5.946
		c-0.781-0.779-0.781-2.047,0-2.828c0.78-0.78,2.047-0.78,2.828,0l4.531,4.532l8.612-8.614c0.78-0.78,2.048-0.78,2.827,0
		C23.362,7.536,23.364,8.802,22.58,9.583z"/>
</g>
<g>
</g>
<g>
</g>
<g>
</g>
<g>
</g>
<g>
</g>
<g>
</g>
<g>
</g>
<g>
</g>
<g>
</g>
<g>
</g>
<g>
</g>
<g>
</g>
<g>
</g>
<g>
</g>
<g>
</g>
</svg>
